<?xml version="1.0" standalone="no"?>
<!DOCTYPE svg PUBLIC "-//W3C//DTD SVG 20010904//EN"
 "http://www.w3.org/TR/2001/REC-SVG-20010904/DTD/svg10.dtd">
<svg version="1.0" xmlns="http://www.w3.org/2000/svg"
 width="700.000000pt" height="700.000000pt" viewBox="0 0 700.000000 700.000000"
 preserveAspectRatio="xMidYMid meet">
<metadata>
Created by potrace 1.11, written by Peter Selinger 2001-2013
</metadata>
<g transform="translate(0.000000,700.000000) scale(0.100000,-0.100000)"
fill="#000000" stroke="none">
<path d="M3165 6989 c-500 -52 -975 -202 -1390 -437 -138 -78 -330 -208 -462
-314 -163 -129 -420 -387 -550 -550 -431 -540 -691 -1188 -753 -1876 -16 -170
-7 -615 14 -767 44 -307 108 -551 217 -831 271 -693 766 -1286 1409 -1690 119
-74 423 -234 445 -234 5 0 -60 36 -145 78 -295 148 -560 328 -782 529 l-66 61
42 94 c83 185 203 361 350 515 l81 85 65 -57 c166 -146 493 -395 519 -395 6 0
17 12 23 26 10 21 9 27 -3 34 -38 22 -307 227 -419 320 -164 136 -503 476
-614 615 -485 607 -613 1159 -381 1640 47 97 280 459 477 742 241 344 438 565
559 625 72 37 155 51 264 45 136 -7 229 -54 404 -206 65 -57 220 -231 275
-308 l30 -43 670 0 671 1 42 57 c140 191 347 383 492 455 l85 42 131 0 131 0
76 -37 c124 -62 257 -198 458 -468 161 -218 536 -789 589 -900 117 -243 146
-480 91 -745 -78 -378 -335 -791 -750 -1205 -234 -235 -417 -391 -657 -563
-111 -79 -112 -80 -96 -103 8 -13 20 -24 25 -24 24 0 356 254 506 388 l84 75
65 -64 c176 -174 350 -442 422 -652 l19 -54 -72 -61 c-455 -382 -980 -636
-1566 -757 -91 -19 -155 -34 -144 -34 27 -1 200 33 309 60 621 155 1208 494
1655 955 531 547 856 1216 966 1989 21 148 30 604 15 761 -83 859 -445 1621
-1048 2204 -586 568 -1299 897 -2122 980 -119 12 -538 11 -656 -1z"/>
<path d="M1830 5013 c-29 -11 -68 -39 -111 -82 -102 -103 -149 -217 -149 -367
l0 -82 -45 -6 c-73 -11 -181 -72 -247 -138 -223 -227 -182 -602 80 -730 63
-31 73 -33 177 -33 106 0 112 1 185 37 119 58 208 159 260 293 32 84 33 224 2
312 l-22 61 65 65 c129 130 184 329 135 497 -16 57 -66 127 -111 157 -52 34
-149 42 -219 16z m276 -101 c22 -45 -7 -83 -46 -62 -23 12 -34 43 -25 71 9 28
56 22 71 -9z"/>
<path d="M4864 5011 c-170 -77 -205 -373 -69 -586 34 -54 110 -132 136 -140
14 -5 13 -13 -8 -73 -31 -91 -31 -202 0 -293 50 -146 136 -245 267 -308 72
-35 79 -36 185 -36 102 0 114 2 169 30 107 54 185 149 216 264 16 61 13 186
-6 251 -54 184 -223 340 -386 357 l-53 5 3 61 c14 241 -167 488 -357 487 -33
0 -73 -8 -97 -19z m290 -113 c20 -28 20 -52 1 -68 -20 -16 -50 -4 -64 26 -23
52 31 88 63 42z"/>
<path d="M2995 4650 c-3 -6 1 -13 10 -16 19 -8 30 0 20 15 -8 14 -22 14 -30 1z"/>
<path d="M3267 4653 c-12 -11 -8 -21 12 -26 24 -6 46 7 37 22 -8 12 -39 15
-49 4z"/>
<path d="M3564 4649 c-6 -10 11 -29 26 -29 3 0 11 4 19 9 17 11 5 31 -19 31
-10 0 -22 -5 -26 -11z"/>
<path d="M3834 4649 c-3 -6 -1 -15 7 -19 16 -10 52 7 44 21 -8 13 -42 11 -51
-2z"/>
<path d="M3150 4555 c-17 -21 -5 -45 24 -45 28 0 37 17 24 43 -11 21 -31 22
-48 2z"/>
<path d="M3446 4563 c-12 -13 -6 -53 9 -53 9 0 15 9 15 24 0 26 -12 40 -24 29z"/>
<path d="M3737 4552 c-7 -27 9 -50 24 -35 13 13 9 45 -7 50 -6 2 -14 -5 -17
-15z"/>
<path d="M3267 4474 c-11 -12 3 -24 29 -24 15 0 24 6 24 15 0 15 -40 21 -53 9z"/>
<path d="M3560 4466 c0 -11 10 -16 31 -16 38 0 35 24 -4 28 -19 2 -27 -1 -27
-12z"/>
<path d="M3440 4375 c0 -8 7 -15 15 -15 8 0 15 7 15 15 0 8 -7 15 -15 15 -8 0
-15 -7 -15 -15z"/>
<path d="M2860 3492 c0 -46 7 -73 31 -121 56 -111 153 -158 308 -148 99 6 161
26 213 68 l37 29 44 -33 c60 -46 123 -62 242 -62 89 0 106 3 157 28 87 43 130
105 148 215 11 66 5 82 -31 82 -26 0 -29 -3 -29 -33 0 -64 -28 -133 -69 -170
-47 -43 -93 -57 -184 -57 -107 0 -154 16 -210 72 -59 59 -87 62 -117 14 -12
-20 -40 -44 -68 -58 -41 -20 -62 -23 -157 -23 -92 0 -116 3 -144 20 -60 35
-92 85 -104 164 -11 68 -12 71 -39 71 -27 0 -28 -1 -28 -58z"/>
<path d="M2130 275 c14 -8 30 -14 35 -14 6 0 -1 6 -15 14 -14 8 -29 14 -35 14
-5 0 1 -6 15 -14z"/>
<path d="M2215 241 c22 -10 51 -21 65 -25 14 -3 7 2 -15 13 -22 10 -51 21 -65
25 -14 3 -7 -2 15 -13z"/>
<path d="M2311 206 c8 -8 149 -56 163 -55 6 0 -19 11 -56 24 -92 32 -114 38
-107 31z"/>
<path d="M2505 140 c11 -5 27 -9 35 -9 9 0 8 4 -5 9 -11 5 -27 9 -35 9 -9 0
-8 -4 5 -9z"/>
<path d="M2561 126 c6 -7 166 -46 181 -45 7 0 -27 12 -77 25 -90 23 -112 28
-104 20z"/>
<path d="M2780 70 c14 -4 36 -8 50 -8 22 0 22 1 -5 8 -16 4 -39 8 -50 8 -16 0
-15 -2 5 -8z"/>
<path d="M2885 50 c17 -4 44 -8 60 -8 25 0 24 2 -10 9 -51 10 -92 10 -50 -1z"/>
<path d="M3065 23 c130 -23 740 -23 870 0 82 15 84 16 25 11 -36 -3 -103 -10
-150 -15 -110 -11 -510 -11 -620 0 -47 5 -114 12 -150 15 -59 5 -57 4 25 -11z"/>
</g>
</svg>
